<?xml version="1.0" encoding="UTF-8" standalone="no"?>
<!-- Created with Inkscape (http://www.inkscape.org/) -->

<svg
   width="32"
   height="32"
   viewBox="0 0 32 32"
   version="1.1"
   id="svg1"
   inkscape:version="1.4 (e7c3feb100, 2024-10-09)"
   sodipodi:docname="accessories-dictionary.svg"
   xmlns:inkscape="http://www.inkscape.org/namespaces/inkscape"
   xmlns:sodipodi="http://sodipodi.sourceforge.net/DTD/sodipodi-0.dtd"
   xmlns:xlink="http://www.w3.org/1999/xlink"
   xmlns="http://www.w3.org/2000/svg"
   xmlns:svg="http://www.w3.org/2000/svg">
  <sodipodi:namedview
     id="namedview1"
     pagecolor="#ffffff"
     bordercolor="#000000"
     borderopacity="0.25"
     inkscape:showpageshadow="2"
     inkscape:pageopacity="0.0"
     inkscape:pagecheckerboard="0"
     inkscape:deskcolor="#d1d1d1"
     inkscape:document-units="px"
     inkscape:zoom="6"
     inkscape:cx="0"
     inkscape:cy="0"
     inkscape:window-width="800"
     inkscape:window-height="600"
     inkscape:window-x="0"
     inkscape:window-y="0"
     inkscape:window-maximized="1"
     inkscape:current-layer="layer1" />
  <defs
     id="defs1">
    <radialGradient
       cx="24"
       cy="36.75"
       fx="24"
       fy="36.75"
       gradientTransform="matrix(1,0,0,0.3,0,25.725)"
       gradientUnits="userSpaceOnUse"
       id="radialGradient2292"
       inkscape:collect="always"
       r="22.5"
       xlink:href="#linearGradient2286" />
    <linearGradient
       id="linearGradient2286"
       inkscape:collect="always">
      <stop
         id="stop2288"
         offset="0"
         style="stop-color: rgb(85, 87, 83);" />
      <stop
         id="stop2290"
         offset="1"
         style="stop-color: rgb(85, 87, 83); stop-opacity: 0;" />
    </linearGradient>
    <radialGradient
       inkscape:collect="always"
       xlink:href="#linearGradient2284"
       id="radialGradient4621"
       cx="16"
       cy="23.462048"
       fx="16"
       fy="23.462048"
       r="15"
       gradientTransform="matrix(1,0,0,0.16919685,0,19.492343)"
       gradientUnits="userSpaceOnUse" />
    <linearGradient
       id="linearGradient2284"
       inkscape:collect="always">
      <stop
         id="stop2286"
         offset="0"
         style="stop-color: rgb(211, 215, 207); stop-opacity: 1;" />
      <stop
         id="stop48"
         offset="1"
         style="stop-color: rgb(174, 176, 171); stop-opacity: 1;" />
    </linearGradient>
    <linearGradient
       inkscape:collect="always"
       xlink:href="#linearGradient2309"
       id="linearGradient2914"
       gradientUnits="userSpaceOnUse"
       x1="6.7230334"
       y1="37.683041"
       x2="37.804565"
       y2="29.096745" />
    <linearGradient
       id="linearGradient2309"
       inkscape:collect="always">
      <stop
         id="stop2311"
         offset="0"
         style="stop-color: rgb(255, 255, 255); stop-opacity: 1;" />
      <stop
         id="stop2313"
         offset="1"
         style="stop-color: rgb(255, 255, 255); stop-opacity: 0;" />
    </linearGradient>
    <linearGradient
       gradientUnits="userSpaceOnUse"
       id="linearGradient2245"
       inkscape:collect="always"
       x1="15.714286"
       x2="36.482143"
       xlink:href="#linearGradient2184"
       y1="16.82852"
       y2="20.667807" />
    <linearGradient
       id="linearGradient2184"
       inkscape:collect="always">
      <stop
         id="stop2186"
         offset="0"
         style="stop-color: rgb(255, 255, 255); stop-opacity: 1;" />
      <stop
         id="stop2188"
         offset="1"
         style="stop-color: rgb(227, 227, 227); stop-opacity: 1;" />
    </linearGradient>
    <linearGradient
       gradientUnits="userSpaceOnUse"
       id="linearGradient2247"
       inkscape:collect="always"
       x1="19.940901"
       x2="24"
       xlink:href="#linearGradient2235"
       y1="10.918805"
       y2="22.750927" />
    <linearGradient
       id="linearGradient2235">
      <stop
         id="stop2237"
         offset="0"
         style="stop-color: rgb(204, 204, 204); stop-opacity: 1;" />
      <stop
         id="stop2239"
         offset="1"
         style="stop-color: rgb(155, 155, 155); stop-opacity: 1;" />
    </linearGradient>
    <linearGradient
       inkscape:collect="always"
       xlink:href="#linearGradient2221"
       id="linearGradient2908"
       gradientUnits="userSpaceOnUse"
       gradientTransform="matrix(-1,0,0,1,48,0)"
       x1="31.999264"
       y1="19.996655"
       x2="37.306122"
       y2="19.996655" />
    <linearGradient
       id="linearGradient2221"
       inkscape:collect="always">
      <stop
         id="stop2223"
         offset="0"
         style="stop-color: rgb(186, 189, 182);" />
      <stop
         id="stop2225"
         offset="1"
         style="stop-color: rgb(211, 215, 207); stop-opacity: 0;" />
    </linearGradient>
    <linearGradient
       inkscape:collect="always"
       xlink:href="#linearGradient2229"
       id="linearGradient2910"
       gradientUnits="userSpaceOnUse"
       gradientTransform="matrix(-1,0,0,1,48,0)"
       x1="32.001114"
       y1="19.550226"
       x2="28.498884"
       y2="19.550226" />
    <linearGradient
       id="linearGradient2229"
       inkscape:collect="always">
      <stop
         id="stop2231"
         offset="0"
         style="stop-color: rgb(136, 138, 133);" />
      <stop
         id="stop2233"
         offset="1"
         style="stop-color: rgb(211, 215, 207); stop-opacity: 0;" />
    </linearGradient>
    <linearGradient
       gradientUnits="userSpaceOnUse"
       id="linearGradient2264"
       inkscape:collect="always"
       x1="32.794643"
       x2="34.79464"
       xlink:href="#linearGradient2258"
       y1="21.696428"
       y2="32.321426" />
    <linearGradient
       id="linearGradient2258"
       inkscape:collect="always">
      <stop
         id="stop2260"
         offset="0"
         style="stop-color: rgb(255, 164, 164); stop-opacity: 1;" />
      <stop
         id="stop2262"
         offset="1"
         style="stop-color: rgb(164, 0, 0);" />
    </linearGradient>
    <linearGradient
       gradientUnits="userSpaceOnUse"
       id="linearGradient2307"
       inkscape:collect="always"
       x1="23.955357"
       x2="29.214285"
       xlink:href="#linearGradient2301"
       y1="10.008928"
       y2="30.276785" />
    <linearGradient
       id="linearGradient2301"
       inkscape:collect="always">
      <stop
         id="stop2303"
         offset="0"
         style="stop-color: rgb(121, 0, 0); stop-opacity: 1;" />
      <stop
         id="stop2305"
         offset="1"
         style="stop-color: rgb(176, 54, 54); stop-opacity: 1;" />
    </linearGradient>
  </defs>
  <g
     inkscape:label="Layer 1"
     inkscape:groupmode="layer"
     id="layer1">
    <g
       id="g32"
       style="display:inline"
       transform="translate(0.00737566,-1.0898799)">
      <ellipse
         id="path73"
         style="color:#000000;display:block;overflow:visible;visibility:visible;opacity:0.501961;fill:url(#radialGradient2292);fill-opacity:1;fill-rule:nonzero;stroke:none;stroke-width:1;marker:none"
         transform="matrix(0.711112,0,0,0.666668,-1.06668,0.999956)"
         cx="24"
         cy="36.75"
         rx="22.5"
         ry="6.75" />
      <path
         d="m 3,8.5 h 26 l 2.5,18 h -12 l -1,-0.5 c -1,0.730499 -4,0.764914 -5,0 l -1,0.5 h -12 z"
         id="path75"
         sodipodi:nodetypes="ccccccccc"
         style="color:#000000;display:block;overflow:visible;visibility:visible;fill:#523856;fill-opacity:1;fill-rule:nonzero;stroke:#3e263b;stroke-width:0.999999;stroke-linecap:round;stroke-linejoin:round;stroke-miterlimit:4;stroke-dasharray:none;stroke-dashoffset:17.85;stroke-opacity:1;marker:none" />
      <path
         d="m 1.5,25.5 c 3.737586,0 9.021278,-0.985716 11,0 1.978722,-1.349481 5.021278,-1.346986 7,0 1.978722,-0.985716 7.70213,0 11,0 L 30,23.5 C 25.382982,21.85714 19.29787,20.042852 16,23 12.70213,20.042852 6.617018,21.85714 2,23.5 Z"
         id="path79"
         sodipodi:nodetypes="cccccccc"
         style="fill:url(#radialGradient4621);fill-opacity:1;fill-rule:evenodd;stroke:#888a85;stroke-width:1;stroke-linecap:butt;stroke-linejoin:miter;stroke-miterlimit:4;stroke-dasharray:none;stroke-opacity:1" />
      <path
         d="M 14.134766,31.923828 C 10.59756,32.380242 6.7776317,33.623683 3.4160156,34.8125 l -0.109375,0.550781 c 2.5231722,-0.07938 5.3706028,-0.318985 8.1308594,-0.482422 2.903784,-0.171934 5.4326,-0.189536 7.369141,0.525391 1.345402,-0.988875 2.849977,-1.529952 4.398437,-1.675781 -2.165402,-1.888461 -5.389859,-2.281538 -9.070312,-1.806641 z m 19.730468,0 c -3.680453,-0.474897 -6.90491,-0.08182 -9.070312,1.806641 1.550154,0.145988 3.055858,0.688807 4.402344,1.679687 1.980232,-0.729036 4.626673,-0.701601 7.613281,-0.529297 2.819945,0.162689 5.580605,0.399527 7.882812,0.480469 L 44.583984,34.8125 C 41.222368,33.623683 37.40244,32.380242 33.865234,31.923828 Z"
         id="path81"
         inkscape:href="#path2180"
         inkscape:original="M 14 30.875 C 10.125 31.375 6 32.75 2.5 34 L 2 36.5 C 7.6666667 36.5 16 35 19 36.5 C 22 34 26 34 29 36.5 C 32 35 41 36.5 46 36.5 L 45.5 34 C 38.5 31.5 29 28.5 24 33 C 21.5 30.75 17.875 30.375 14 30.875 z "
         inkscape:radius="-1.0582203"
         sodipodi:type="inkscape:offset"
         style="opacity:0.301961;fill:none;stroke:url(#linearGradient2914);stroke-width:1;stroke-linecap:butt;stroke-linejoin:miter;stroke-miterlimit:4;stroke-dasharray:none;stroke-opacity:1"
         transform="matrix(0.637316,0,0,0.61583,0.579418,2.79136)"
         xlink:href="#path2180" />
      <path
         d="M 2,23.5 C 6.287231,21.85714 13,20 16,23 c 3,-3 9.712769,-1.14286 14,0.5 L 28,7.5 C 24.372343,5.85714 19,4.5 15.999989,6.8571401 13,4.5 8.287231,5.85714 4,7.5 Z"
         id="path83"
         sodipodi:nodetypes="ccccccc"
         style="fill:url(#linearGradient2245);fill-opacity:1;fill-rule:evenodd;stroke:url(#linearGradient2247);stroke-width:1;stroke-linecap:butt;stroke-linejoin:miter;stroke-miterlimit:4;stroke-dasharray:none;stroke-opacity:1" />
      <path
         d="M 16,8 C 14.680851,7.014284 13.031911,6.3714251 10.723401,6.6999971 L 11,21 c 1.319148,-0.657144 3.680851,0.185711 5,1.5 z"
         id="path85"
         sodipodi:nodetypes="ccccc"
         style="color:#000000;display:block;overflow:visible;visibility:visible;fill:url(#linearGradient2908);fill-opacity:1;fill-rule:nonzero;stroke:none;stroke-width:1;marker:none" />
      <path
         d="m 16,8 c 0.805514,-0.457452 1.897041,-1.061159 3,-1 l 0.5,14 c -0.989361,-0.328572 -2.510639,0.842855 -3.5,1.5 z"
         id="path87"
         sodipodi:nodetypes="ccccc"
         style="color:#000000;display:block;overflow:visible;visibility:visible;fill:url(#linearGradient2910);fill-opacity:1;fill-rule:nonzero;stroke:none;stroke-width:1;marker:none" />
      <path
         d="M 16.996094,8.5234375 C 13.699753,8.7961191 9.8537809,9.9302225 6.375,11.234375 L 3.6445313,32.625 c 3.1143566,-1.093935 6.8088927,-2.126595 10.4394527,-2.517578 3.84043,-0.413585 7.49032,-0.129433 9.916016,1.75 2.425696,-1.879433 6.075586,-2.163585 9.916016,-1.75 3.63056,0.390983 7.325096,1.423643 10.439453,2.517578 L 41.621094,11.201172 C 39.011707,10.071662 35.58623,9.0412964 32.380859,8.640625 28.998235,8.217797 25.968644,8.5787738 24.625,9.7304688 a 0.96119877,0.96119877 0 0 1 -1.201172,0.039063 C 22.587856,9.1425524 21.502487,8.7475596 20.205078,8.5683594 19.232021,8.4339592 18.148936,8.4280715 16.996094,8.5234375 Z"
         id="path89"
         inkscape:href="#path2182"
         inkscape:original="M 20.335938 7.6171875 C 16.09375 7.03125 10.375 8.625 5.5 10.5 L 2.5 34 C 9 31.5 20 29 24 33 C 28 29 39 31.5 45.5 34 L 42.5 10.5 C 37 8 27.5 6 24 9 C 23 8.25 21.75 7.8125 20.335938 7.6171875 z "
         inkscape:radius="-0.96110266"
         sodipodi:type="inkscape:offset"
         style="opacity:0.65098;fill:none;stroke:#ffffff;stroke-width:1;stroke-linecap:butt;stroke-linejoin:miter;stroke-miterlimit:4;stroke-dasharray:none;stroke-opacity:1"
         transform="matrix(0.626358,0,0,0.666717,0.955326,0.641253)"
         xlink:href="#path2182" />
      <path
         d="m 16.5,6.5 c 0.02944,7.733177 6.095729,8.085724 5.765942,14.985736 l -0.659574,2.628576 0.989361,-0.328572 0.659574,0.657144 0.329787,-2.628576 C 23.914877,14.585724 16.529445,13.958686 16.5,7 Z"
         id="path91"
         sodipodi:nodetypes="cccccccc"
         style="fill:url(#linearGradient2264);fill-opacity:1;fill-rule:evenodd;stroke:url(#linearGradient2307);stroke-width:1;stroke-linecap:square;stroke-linejoin:miter;stroke-miterlimit:4;stroke-dasharray:none;stroke-opacity:1" />
    </g>
  </g>
</svg>
