<?xml version="1.0" encoding="UTF-8" standalone="no"?>
<!-- Created with Inkscape (http://www.inkscape.org/) -->

<svg
   width="256"
   height="256"
   viewBox="0 0 256 256"
   version="1.1"
   id="svg1"
   inkscape:version="1.4.2 (unknown)"
   sodipodi:docname="system-log-out.svg"
   xmlns:inkscape="http://www.inkscape.org/namespaces/inkscape"
   xmlns:sodipodi="http://sodipodi.sourceforge.net/DTD/sodipodi-0.dtd"
   xmlns:xlink="http://www.w3.org/1999/xlink"
   xmlns="http://www.w3.org/2000/svg"
   xmlns:svg="http://www.w3.org/2000/svg">
  <sodipodi:namedview
     id="namedview1"
     pagecolor="#ffffff"
     bordercolor="#000000"
     borderopacity="0.25"
     inkscape:showpageshadow="2"
     inkscape:pageopacity="0.0"
     inkscape:pagecheckerboard="0"
     inkscape:deskcolor="#d1d1d1"
     inkscape:document-units="px"
     inkscape:zoom="2.8957594"
     inkscape:cx="88.750467"
     inkscape:cy="140.89568"
     inkscape:window-width="1920"
     inkscape:window-height="1128"
     inkscape:window-x="0"
     inkscape:window-y="0"
     inkscape:window-maximized="1"
     inkscape:current-layer="layer1"
     showgrid="true">
    <inkscape:grid
       id="grid1"
       units="px"
       originx="0"
       originy="0"
       spacingx="1"
       spacingy="1"
       empcolor="#0099e5"
       empopacity="0.30196078"
       color="#0099e5"
       opacity="0.14901961"
       empspacing="5"
       enabled="true"
       visible="true" />
  </sodipodi:namedview>
  <defs
     id="defs1">
    <linearGradient
       inkscape:collect="always"
       id="linearGradient11275">
      <stop
         style="stop-color:#73d216;stop-opacity:1;"
         offset="0"
         id="stop11277" />
      <stop
         style="stop-color:#73d216;stop-opacity:0;"
         offset="1"
         id="stop11279" />
    </linearGradient>
    <linearGradient
       inkscape:collect="always"
       id="linearGradient11225">
      <stop
         style="stop-color:#ffffff;stop-opacity:1;"
         offset="0"
         id="stop11227" />
      <stop
         style="stop-color:#ffffff;stop-opacity:0;"
         offset="1"
         id="stop11229" />
    </linearGradient>
    <linearGradient
       inkscape:collect="always"
       id="linearGradient3511">
      <stop
         style="stop-color:#274d03;stop-opacity:1;"
         offset="0"
         id="stop3513" />
      <stop
         style="stop-color:#274d03;stop-opacity:0;"
         offset="1"
         id="stop3515" />
    </linearGradient>
    <linearGradient
       inkscape:collect="always"
       id="linearGradient3499">
      <stop
         style="stop-color:#ffffff;stop-opacity:1;"
         offset="0"
         id="stop3501" />
      <stop
         style="stop-color:#ffffff;stop-opacity:0;"
         offset="1"
         id="stop3503" />
    </linearGradient>
    <linearGradient
       inkscape:collect="always"
       id="linearGradient3476">
      <stop
         style="stop-color:#ffffff;stop-opacity:1;"
         offset="0"
         id="stop3478" />
      <stop
         style="stop-color:#ffffff;stop-opacity:0;"
         offset="1"
         id="stop3480" />
    </linearGradient>
    <linearGradient
       inkscape:collect="always"
       id="linearGradient3448">
      <stop
         style="stop-color:#ffffff;stop-opacity:1;"
         offset="0"
         id="stop3450" />
      <stop
         style="stop-color:#ffffff;stop-opacity:0;"
         offset="1"
         id="stop3452" />
    </linearGradient>
    <linearGradient
       inkscape:collect="always"
       id="linearGradient3435">
      <stop
         style="stop-color:#68bf14;stop-opacity:1"
         offset="0"
         id="stop3437" />
      <stop
         style="stop-color:#4e9a06;stop-opacity:1"
         offset="1"
         id="stop3439" />
    </linearGradient>
    <clipPath
       clipPathUnits="userSpaceOnUse"
       id="clipPath3423">
      <rect
         style="opacity:1;fill:#999999;fill-opacity:1;fill-rule:evenodd;stroke:none;stroke-width:12;stroke-linecap:round;stroke-linejoin:round;marker:none;marker-start:none;marker-mid:none;marker-end:none;stroke-miterlimit:4;stroke-dasharray:none;stroke-dashoffset:0;stroke-opacity:1;visibility:visible;display:inline;overflow:visible;enable-background:new"
         id="rect3425"
         width="224"
         height="224"
         x="36"
         y="364"
         rx="5.9375"
         ry="5.9375" />
    </clipPath>
    <filter
       inkscape:collect="always"
       id="filter3431"
       x="-0.028678571"
       y="-0.028678571"
       width="1.0573571"
       height="1.0573571">
      <feGaussianBlur
         inkscape:collect="always"
         stdDeviation="2.26"
         id="feGaussianBlur3433" />
    </filter>
    <radialGradient
       inkscape:collect="always"
       xlink:href="#linearGradient3435"
       id="radialGradient3441"
       cx="148"
       cy="543.25793"
       fx="148"
       fy="543.25793"
       r="112"
       gradientUnits="userSpaceOnUse"
       gradientTransform="matrix(1.59089,0,0,1.34089,-87.451726,-145.44918)" />
    <filter
       inkscape:collect="always"
       id="filter3456"
       x="-0.012341363"
       width="1.0246827"
       y="-0.43383862"
       height="1.8676772">
      <feGaussianBlur
         inkscape:collect="always"
         stdDeviation="1.1107227"
         id="feGaussianBlur3458" />
    </filter>
    <radialGradient
       inkscape:collect="always"
       xlink:href="#linearGradient3448"
       id="radialGradient3461"
       gradientUnits="userSpaceOnUse"
       gradientTransform="matrix(1.6687487,0,0,0.2364047,-98.974807,356.54282)"
       cx="148"
       cy="53"
       fx="148"
       fy="53"
       r="108" />
    <filter
       inkscape:collect="always"
       id="filter3485"
       x="-0.086474653"
       width="1.1729493"
       y="-0.19597911"
       height="1.3919582">
      <feGaussianBlur
         inkscape:collect="always"
         stdDeviation="7.81875"
         id="feGaussianBlur3487" />
    </filter>
    <linearGradient
       inkscape:collect="always"
       xlink:href="#linearGradient3476"
       id="linearGradient3489"
       gradientUnits="userSpaceOnUse"
       x1="61.5"
       y1="280.02573"
       x2="61.5"
       y2="198.13327"
       gradientTransform="translate(0,322)" />
    <radialGradient
       inkscape:collect="always"
       xlink:href="#linearGradient3448"
       id="radialGradient3495"
       gradientUnits="userSpaceOnUse"
       gradientTransform="matrix(1.6687487,0,0,0.2364047,-98.974807,356.54282)"
       cx="148"
       cy="53"
       fx="148"
       fy="53"
       r="108" />
    <radialGradient
       inkscape:collect="always"
       xlink:href="#linearGradient3499"
       id="radialGradient3505"
       cx="148"
       cy="476"
       fx="148"
       fy="476"
       r="109"
       gradientTransform="matrix(2.437931,0.1422017,-0.05352297,0.9176063,-187.3369,18.173633)"
       gradientUnits="userSpaceOnUse" />
    <filter
       inkscape:collect="always"
       id="filter3507"
       x="-0.016941676"
       y="-0.016336617"
       width="1.0338834"
       height="1.0326732">
      <feGaussianBlur
         inkscape:collect="always"
         stdDeviation="1.11"
         id="feGaussianBlur3509" />
    </filter>
    <linearGradient
       inkscape:collect="always"
       xlink:href="#linearGradient3511"
       id="linearGradient3517"
       x1="137"
       y1="542.40149"
       x2="137"
       y2="-87.094368"
       gradientUnits="userSpaceOnUse" />
    <filter
       inkscape:collect="always"
       id="filter3521"
       x="-0.031315788"
       width="1.0626316"
       y="-0.71399998"
       height="2.428">
      <feGaussianBlur
         inkscape:collect="always"
         stdDeviation="2.975"
         id="feGaussianBlur3523" />
    </filter>
    <filter
       inkscape:collect="always"
       id="filter3531"
       x="-0.062631577"
       width="1.125"
       y="-1.428"
       height="3.8559999">
      <feGaussianBlur
         inkscape:collect="always"
         stdDeviation="5.95"
         id="feGaussianBlur3533" />
    </filter>
    <radialGradient
       inkscape:collect="always"
       xlink:href="#linearGradient11225"
       id="radialGradient11231"
       cx="69.010353"
       cy="41.969551"
       fx="69.010353"
       fy="41.969551"
       r="108.5"
       gradientTransform="matrix(2.1337521,-0.1382488,0.06120856,0.9447015,-60.35655,119.84958)"
       gradientUnits="userSpaceOnUse" />
    <radialGradient
       inkscape:collect="always"
       xlink:href="#linearGradient11275"
       id="radialGradient11281"
       cx="36"
       cy="351"
       fx="36"
       fy="351"
       r="112"
       gradientUnits="userSpaceOnUse"
       gradientTransform="matrix(2.7881314,-1.5982143e-7,7.4211595e-8,1.2946429,-64.372756,-103.41963)" />
  </defs>
  <g
     inkscape:label="Layer 1"
     inkscape:groupmode="layer"
     id="layer1">
    <g
       id="system-log-out-256"
       transform="translate(-20,-32)">
      <g
         id="layer3"
         inkscape:label="hires"
         style="display:inline;opacity:1">
        <rect
           style="opacity:0.7;fill:#000000;fill-opacity:1;fill-rule:evenodd;stroke:none;stroke-width:2;marker:none;visibility:visible;display:inline;overflow:visible;filter:url(#filter3531);enable-background:new"
           id="rect3525"
           width="228"
           height="10"
           x="34"
           y="260"
           rx="6.0530972"
           ry="5"
           transform="matrix(0.9912281,0,0,0.787868,1.2982456,55.275649)" />
        <rect
           style="opacity:0.7;fill:#000000;fill-opacity:1;fill-rule:evenodd;stroke:none;stroke-width:2;marker:none;visibility:visible;display:inline;overflow:visible;filter:url(#filter3521);enable-background:new"
           id="rect3519"
           width="228"
           height="10"
           x="34"
           y="260"
           rx="6.0530972"
           ry="5"
           transform="matrix(0.9912281,0,0,0.787868,1.2982456,55.275649)" />
        <g
           id="g3417"
           clip-path="url(#clipPath3423)"
           transform="translate(0,-322)">
          <rect
             ry="5.9375"
             rx="5.9375"
             y="364"
             x="36"
             height="224"
             width="224"
             id="rect3413"
             style="fill:url(#radialGradient3441);fill-opacity:1;fill-rule:evenodd;stroke:none;stroke-width:12;marker:none;visibility:visible;display:inline;overflow:visible;enable-background:new" />
          <rect
             ry="5.9375"
             rx="5.9375"
             y="364"
             x="36"
             height="224"
             width="224"
             id="rect11273"
             style="opacity:0.5;fill:url(#radialGradient11281);fill-opacity:1;fill-rule:evenodd;stroke:none;stroke-width:12;marker:none;visibility:visible;display:inline;overflow:visible;enable-background:new" />
          <rect
             ry="5.9375"
             rx="5.7254467"
             y="364"
             x="40"
             height="224"
             width="216"
             id="rect3497"
             style="opacity:0.4;fill:none;stroke:url(#radialGradient3505);stroke-width:1.99080455;stroke-linecap:round;stroke-linejoin:round;stroke-miterlimit:4;stroke-opacity:1;stroke-dasharray:none;stroke-dashoffset:0;marker:none;visibility:visible;display:inline;overflow:visible;filter:url(#filter3507);enable-background:new"
             transform="matrix(1.0092593,0,0,1,-1.3703703,0)" />
          <path
             style="opacity:0.3;fill:url(#linearGradient3489);fill-opacity:1;fill-rule:evenodd;stroke:none;stroke-width:12;marker:none;visibility:visible;display:inline;overflow:visible;filter:url(#filter3485);enable-background:new"
             d="m 39.5,490.75 0,90 c 0,3.18658 2.563418,5.75 5.75,5.75 l 205.5,0 c 3.18658,0 5.75,-2.56342 5.75,-5.75 l 0,-90 c 0,3.18658 -2.56342,5.75 -5.75,5.75 l -205.5,0 c -3.186582,0 -5.75,-2.56342 -5.75,-5.75 z"
             id="rect3463"
             inkscape:connector-curvature="0" />
          <path
             style="opacity:0.5;fill:url(#radialGradient3461);fill-opacity:1;fill-rule:evenodd;stroke:none;stroke-width:12;marker:none;visibility:visible;display:inline;overflow:visible;filter:url(#filter3456);enable-background:new"
             d="M 45.725446,366 C 42.553549,366 40,367.14072 40,368.56139 l 0,3.58314 c 0,-1.42067 2.553549,-2.56139 5.725446,-2.56139 l 204.549104,0 c 3.17191,0 5.72545,1.14072 5.72545,2.56139 l 0,-3.58314 C 256,367.14072 253.44646,366 250.27455,366 l -204.549104,0 z"
             id="rect3411"
             transform="matrix(1,0,0,0.7558804,0,92.34776)"
             inkscape:connector-curvature="0" />
          <rect
             ry="5.9375"
             rx="5.9375"
             y="364"
             x="36"
             height="224"
             width="224"
             id="rect3415"
             style="fill:none;stroke:url(#linearGradient3517);stroke-width:2;stroke-linecap:round;stroke-linejoin:round;stroke-miterlimit:4;stroke-opacity:1;stroke-dasharray:none;stroke-dashoffset:0;marker:none;visibility:visible;display:inline;overflow:visible;filter:url(#filter3431);enable-background:new" />
          <path
             style="opacity:0.7;fill:url(#radialGradient3495);fill-opacity:1;fill-rule:evenodd;stroke:none;stroke-width:12;marker:none;visibility:visible;display:inline;overflow:visible;filter:url(#filter3456);enable-background:new"
             d="M 45.725446,366 C 42.553549,366 40,367.14072 40,368.56139 l 0,3.58314 c 0,-1.42067 2.553549,-2.56139 5.725446,-2.56139 l 204.549104,0 c 3.17191,0 5.72545,1.14072 5.72545,2.56139 l 0,-3.58314 C 256,367.14072 253.44646,366 250.27455,366 l -204.549104,0 z"
             id="path3493"
             transform="matrix(1,0,0,-1,0,952.14453)"
             inkscape:connector-curvature="0" />
        </g>
        <path
           style="fill:#ffffff;fill-opacity:1;fill-rule:evenodd;stroke:none;stroke-width:12;marker:none;visibility:visible;display:inline;overflow:visible;enable-background:new"
           d="m 80,58 0,136.25 c -11.902428,1.53197 -21,9.79818 -21,19.75 0,1.36971 0.171624,2.70746 0.5,4 l 20.5,0 0,28 -12,16 98,0 12,-16 18,0 -12,16 20,0 12,-16 0,-92 -26,0 c -1.75372,0.002 -3.42069,-0.76265 -4.5625,-2.09375 L 170.625,134.625 156.9375,162 196,242 c 0,0 -18,0 -18,0 l -38,-68 c 0,0 -4.03125,32.65625 -4.03125,32.65625 -0.3418,4.14798 -3.80671,7.34114 -7.96875,7.34375 l -64,0 c 0,-8.83199 8.96,-16 20,-16 l 36.65625,0 3.375,-40.65625 c 0.084,-1.01152 0.35977,-1.99781 0.8125,-2.90625 L 139.0625,126 l -19.6875,0 -14.25,23.15625 c -1.74315,2.83046 -5.45079,3.7119 -8.28125,1.96875 -2.83046,-1.74315 -3.7119,-5.45079 -1.96875,-8.28125 l 16,-26 c 1.09771,-1.7745 3.03843,-2.85136 5.125,-2.84375 l 50,0 c 1.75372,-0.002 3.42069,0.76265 4.5625,2.09375 L 192.78125,142 216,142 216,58 80,58 z m 88,20 c 8.832,0 16,7.168 16,16 0,8.832 -7.168,16 -16,16 -8.832,0 -16,-7.168 -16,-16 0,-8.832 7.168,-16 16,-16 z"
           id="rect3384"
           inkscape:connector-curvature="0" />
        <path
           style="opacity:0.3;fill:url(#radialGradient11231);fill-opacity:1;fill-rule:evenodd;stroke:none;stroke-width:12;marker:none;visibility:visible;display:inline;overflow:visible;enable-background:new"
           d="m 42.741004,46 c -1.40023,0 -2.419034,1.018803 -2.419034,2.419034 l 0,118.580966 215.35606,-19.69697 0,-98.883996 C 255.67803,47.018793 254.65924,46 253.259,46 L 42.741004,46 z"
           id="path11218"
           sodipodi:nodetypes="ccccccc"
           inkscape:connector-curvature="0" />
      </g>
    </g>
  </g>
</svg>
