<?xml version="1.0" encoding="UTF-8" standalone="no"?>
<!-- Created with Inkscape (http://www.inkscape.org/) -->

<svg
   width="22"
   height="22"
   viewBox="0 0 22 22"
   version="1.1"
   id="svg1"
   inkscape:version="1.4 (e7c3feb100, 2024-10-09)"
   sodipodi:docname="preferences-system-sharing.svg"
   xmlns:inkscape="http://www.inkscape.org/namespaces/inkscape"
   xmlns:sodipodi="http://sodipodi.sourceforge.net/DTD/sodipodi-0.dtd"
   xmlns:xlink="http://www.w3.org/1999/xlink"
   xmlns="http://www.w3.org/2000/svg"
   xmlns:svg="http://www.w3.org/2000/svg">
  <sodipodi:namedview
     id="namedview1"
     pagecolor="#ffffff"
     bordercolor="#000000"
     borderopacity="0.25"
     inkscape:showpageshadow="2"
     inkscape:pageopacity="0.0"
     inkscape:pagecheckerboard="0"
     inkscape:deskcolor="#d1d1d1"
     inkscape:document-units="px"
     inkscape:zoom="6"
     inkscape:cx="0"
     inkscape:cy="0"
     inkscape:window-width="800"
     inkscape:window-height="600"
     inkscape:window-x="0"
     inkscape:window-y="0"
     inkscape:window-maximized="1"
     inkscape:current-layer="layer1"
     showgrid="true">
    <inkscape:grid
       id="grid1"
       units="px"
       originx="0"
       originy="0"
       spacingx="1"
       spacingy="1"
       empcolor="#0099e5"
       empopacity="0.30196078"
       color="#0099e5"
       opacity="0.14901961"
       empspacing="5"
       enabled="true"
       visible="true"
       dotted="false" />
  </sodipodi:namedview>
  <defs
     id="defs1">
    <linearGradient
       id="linearGradient11601"
       inkscape:collect="always">
      <stop
         id="stop11603"
         offset="0"
         style="stop-color:#c7c7c6;stop-opacity:1" />
      <stop
         id="stop11605"
         offset="1"
         style="stop-color:#787776;stop-opacity:0;" />
    </linearGradient>
    <linearGradient
       inkscape:collect="always"
       id="linearGradient11390">
      <stop
         style="stop-color:#363735;stop-opacity:1"
         offset="0"
         id="stop11392" />
      <stop
         style="stop-color:#737570;stop-opacity:1"
         offset="1"
         id="stop11394" />
    </linearGradient>
    <linearGradient
       inkscape:collect="always"
       id="linearGradient11380">
      <stop
         style="stop-color:#44403f;stop-opacity:1;"
         offset="0"
         id="stop11382" />
      <stop
         id="stop11388"
         offset="0.32040033"
         style="stop-color:#b7b2b1;stop-opacity:1" />
      <stop
         style="stop-color:#494443;stop-opacity:1"
         offset="1"
         id="stop11384" />
    </linearGradient>
    <linearGradient
       inkscape:collect="always"
       id="linearGradient11372">
      <stop
         style="stop-color:#ffffff;stop-opacity:1;"
         offset="0"
         id="stop11374" />
      <stop
         style="stop-color:#ffffff;stop-opacity:0;"
         offset="1"
         id="stop11376" />
    </linearGradient>
    <linearGradient
       inkscape:collect="always"
       id="linearGradient11149-0">
      <stop
         style="stop-color:#000000;stop-opacity:1;"
         offset="0"
         id="stop11151-0" />
      <stop
         style="stop-color:#000000;stop-opacity:0;"
         offset="1"
         id="stop11153-0" />
    </linearGradient>
    <filter
       color-interpolation-filters="sRGB"
       inkscape:collect="always"
       id="filter11193-8"
       x="-0.24657445"
       width="1.4931489"
       y="-0.49314891"
       height="1.9862978">
      <feGaussianBlur
         inkscape:collect="always"
         stdDeviation="4.5205316"
         id="feGaussianBlur11195-9" />
    </filter>
    <filter
       color-interpolation-filters="sRGB"
       inkscape:collect="always"
       id="filter11205-8"
       x="-0.095939086"
       width="1.1918782"
       y="-0.19187817"
       height="1.3837563">
      <feGaussianBlur
         inkscape:collect="always"
         stdDeviation="1.7588832"
         id="feGaussianBlur11207-8" />
    </filter>
    <radialGradient
       inkscape:collect="always"
       xlink:href="#linearGradient11149-0"
       id="radialGradient11796"
       gradientUnits="userSpaceOnUse"
       gradientTransform="matrix(-1.1324776,0.15287466,-0.01220125,-0.49917715,473.54505,311.90463)"
       cx="220.75111"
       cy="229.34059"
       fx="220.75111"
       fy="229.34059"
       r="22" />
    <radialGradient
       inkscape:collect="always"
       xlink:href="#linearGradient11149-0"
       id="radialGradient11798"
       gradientUnits="userSpaceOnUse"
       gradientTransform="matrix(1,0,0,0.5,0,116.5)"
       cx="210"
       cy="233"
       fx="210"
       fy="233"
       r="22" />
    <linearGradient
       inkscape:collect="always"
       xlink:href="#linearGradient11380"
       id="linearGradient11810"
       gradientUnits="userSpaceOnUse"
       gradientTransform="translate(47.93011,-214.36414)"
       x1="277.78214"
       y1="169.91968"
       x2="277.73355"
       y2="173.03474" />
    <linearGradient
       inkscape:collect="always"
       xlink:href="#linearGradient11390"
       id="linearGradient11812"
       gradientUnits="userSpaceOnUse"
       gradientTransform="translate(47.93011,-214.36414)"
       x1="273.51517"
       y1="173.18649"
       x2="275.97977"
       y2="169.59061" />
    <linearGradient
       inkscape:collect="always"
       xlink:href="#linearGradient11380"
       id="linearGradient11814"
       gradientUnits="userSpaceOnUse"
       x1="277.78214"
       y1="169.91968"
       x2="277.73355"
       y2="173.03474" />
    <linearGradient
       inkscape:collect="always"
       xlink:href="#linearGradient11390"
       id="linearGradient11816"
       gradientUnits="userSpaceOnUse"
       x1="273.51517"
       y1="173.18649"
       x2="275.97977"
       y2="169.59061" />
    <linearGradient
       inkscape:collect="always"
       xlink:href="#linearGradient11601"
       id="linearGradient11822"
       gradientUnits="userSpaceOnUse"
       x1="333"
       y1="68"
       x2="333"
       y2="66" />
    <radialGradient
       inkscape:collect="always"
       xlink:href="#linearGradient11372"
       id="radialGradient11824"
       gradientUnits="userSpaceOnUse"
       gradientTransform="matrix(8.4985905,-0.16126495,0.03676477,1.9374879,-2481.0201,-11.063958)"
       cx="330.52823"
       cy="68.658569"
       fx="330.52823"
       fy="68.658569"
       r="7.4728333" />
    <linearGradient
       inkscape:collect="always"
       xlink:href="#linearGradient11601"
       id="linearGradient11850"
       gradientUnits="userSpaceOnUse"
       x1="333"
       y1="68"
       x2="333"
       y2="66" />
    <radialGradient
       inkscape:collect="always"
       xlink:href="#linearGradient11372"
       id="radialGradient11852"
       gradientUnits="userSpaceOnUse"
       gradientTransform="matrix(8.4985905,-0.16126495,0.03676477,1.9374879,-2481.0201,-11.063958)"
       cx="330.52823"
       cy="68.658569"
       fx="330.52823"
       fy="68.658569"
       r="7.4728333" />
    <linearGradient
       inkscape:collect="always"
       xlink:href="#linearGradient11601"
       id="linearGradient11870"
       gradientUnits="userSpaceOnUse"
       x1="333"
       y1="68"
       x2="333"
       y2="66" />
    <radialGradient
       inkscape:collect="always"
       xlink:href="#linearGradient11372"
       id="radialGradient11872"
       gradientUnits="userSpaceOnUse"
       gradientTransform="matrix(8.4985905,-0.16126495,0.03676477,1.9374879,-2481.0201,-11.063958)"
       cx="330.52823"
       cy="68.658569"
       fx="330.52823"
       fy="68.658569"
       r="7.4728333" />
    <filter
       inkscape:collect="always"
       id="filter11874"
       x="-0.26923861"
       width="1.3890048"
       y="-1.009708"
       height="3.019416">
      <feGaussianBlur
         inkscape:collect="always"
         stdDeviation="6.456989"
         id="feGaussianBlur11876" />
    </filter>
    <radialGradient
       inkscape:collect="always"
       xlink:href="#linearGradient17557-99"
       id="radialGradient11262-1"
       cx="330.75638"
       cy="61.612198"
       fx="330.75638"
       fy="61.612198"
       r="7.377028"
       gradientUnits="userSpaceOnUse"
       gradientTransform="matrix(3.142857,-0.14285718,0.04540768,0.99896854,-711.13078,47.283209)" />
    <linearGradient
       id="linearGradient17557-99"
       inkscape:collect="always">
      <stop
         id="stop17559-4"
         offset="0"
         style="stop-color:#736d6a;stop-opacity:1" />
      <stop
         id="stop17561-4"
         offset="1"
         style="stop-color:#a7a5a5;stop-opacity:1" />
    </linearGradient>
    <linearGradient
       inkscape:collect="always"
       xlink:href="#linearGradient11362-63"
       id="linearGradient11368-95"
       x1="328.4205"
       y1="56.575092"
       x2="328.4205"
       y2="69.221428"
       gradientUnits="userSpaceOnUse" />
    <linearGradient
       inkscape:collect="always"
       id="linearGradient11362-63">
      <stop
         style="stop-color:#888a85;stop-opacity:1;"
         offset="0"
         id="stop11364-7" />
      <stop
         style="stop-color:#50514e;stop-opacity:1"
         offset="1"
         id="stop11366-98" />
    </linearGradient>
    <radialGradient
       inkscape:collect="always"
       xlink:href="#linearGradient17557-48"
       id="radialGradient11262-52"
       cx="330.75638"
       cy="61.612198"
       fx="330.75638"
       fy="61.612198"
       r="7.377028"
       gradientUnits="userSpaceOnUse"
       gradientTransform="matrix(3.142857,-0.14285718,0.04540768,0.99896854,-711.13078,47.283209)" />
    <linearGradient
       id="linearGradient17557-48"
       inkscape:collect="always">
      <stop
         id="stop17559-6"
         offset="0"
         style="stop-color:#736d6a;stop-opacity:1" />
      <stop
         id="stop17561-84"
         offset="1"
         style="stop-color:#a7a5a5;stop-opacity:1" />
    </linearGradient>
    <linearGradient
       inkscape:collect="always"
       xlink:href="#linearGradient11362-7"
       id="linearGradient11368-1"
       x1="328.4205"
       y1="56.575092"
       x2="328.4205"
       y2="69.221428"
       gradientUnits="userSpaceOnUse" />
    <linearGradient
       inkscape:collect="always"
       id="linearGradient11362-7">
      <stop
         style="stop-color:#888a85;stop-opacity:1;"
         offset="0"
         id="stop11364-70" />
      <stop
         style="stop-color:#50514e;stop-opacity:1"
         offset="1"
         id="stop11366-4" />
    </linearGradient>
    <radialGradient
       inkscape:collect="always"
       xlink:href="#linearGradient17557-6"
       id="radialGradient11262-21"
       cx="330.75638"
       cy="61.612198"
       fx="330.75638"
       fy="61.612198"
       r="7.377028"
       gradientUnits="userSpaceOnUse"
       gradientTransform="matrix(3.142857,-0.14285718,0.04540768,0.99896854,-711.13078,47.283209)" />
    <linearGradient
       id="linearGradient17557-6"
       inkscape:collect="always">
      <stop
         id="stop17559-2"
         offset="0"
         style="stop-color:#736d6a;stop-opacity:1" />
      <stop
         id="stop17561-7"
         offset="1"
         style="stop-color:#a7a5a5;stop-opacity:1" />
    </linearGradient>
    <linearGradient
       inkscape:collect="always"
       xlink:href="#linearGradient11362-76"
       id="linearGradient11368-2"
       x1="328.4205"
       y1="56.575092"
       x2="328.4205"
       y2="69.221428"
       gradientUnits="userSpaceOnUse" />
    <linearGradient
       inkscape:collect="always"
       id="linearGradient11362-76">
      <stop
         style="stop-color:#888a85;stop-opacity:1;"
         offset="0"
         id="stop11364-4" />
      <stop
         style="stop-color:#50514e;stop-opacity:1"
         offset="1"
         id="stop11366-52" />
    </linearGradient>
  </defs>
  <g
     inkscape:label="Layer 1"
     inkscape:groupmode="layer"
     id="layer1">
    <g
       id="preferences-system-sharing-22"
       transform="translate(-303,-177)">
      <g
         transform="matrix(0.51570416,0,0,0.51570416,149.17036,149.18222)"
         id="g11736">
        <g
           id="g11738"
           style="display:inline;enable-background:new;filter:url(#filter11874)"
           transform="matrix(0.14089299,0,0,0.19429441,302.50829,45.107276)">
          <path
             transform="matrix(4.4192405,0,0,1.3636364,-799.04504,-84.727273)"
             d="m 232,233 c 0,6.07513 -9.84974,11 -22,11 -12.15026,0 -22,-4.92487 -22,-11 0,-6.07513 9.84974,-11 22,-11 12.15026,0 22,4.92487 22,11 z"
             sodipodi:ry="11"
             sodipodi:rx="22"
             sodipodi:cy="233"
             sodipodi:cx="210"
             id="path11740"
             style="opacity:0.66666667000000002;color:#000000;fill:url(#radialGradient11796);fill-opacity:1;fill-rule:nonzero;stroke:none;stroke-width:3.09999989999999981;marker:none;visibility:visible;display:inline;overflow:visible;filter:url(#filter11193-8);enable-background:accumulate"
             sodipodi:type="arc" />
          <path
             sodipodi:type="arc"
             style="color:#000000;fill:url(#radialGradient11798);fill-opacity:1;fill-rule:nonzero;stroke:none;stroke-width:3.09999989999999981;marker:none;visibility:visible;display:inline;overflow:visible;filter:url(#filter11205-8);enable-background:accumulate;opacity:0.51794872"
             id="path11742"
             sodipodi:cx="210"
             sodipodi:cy="233"
             sodipodi:rx="22"
             sodipodi:ry="11"
             d="m 232,233 c 0,6.07513 -9.84974,11 -22,11 -12.15026,0 -22,-4.92487 -22,-11 0,-6.07513 9.84974,-11 22,-11 12.15026,0 22,4.92487 22,11 z"
             transform="matrix(3.0143334,0,0,1.1818184,-431.91709,-43.363637)" />
        </g>
        <rect
           ry="2.847522"
           rx="2.847522"
           style="color:#000000;fill:url(#linearGradient11810);fill-opacity:1;fill-rule:nonzero;stroke:url(#linearGradient11812);stroke-width:1.93909621;stroke-linecap:butt;stroke-linejoin:miter;stroke-miterlimit:4;stroke-opacity:1;stroke-dasharray:none;stroke-dashoffset:0;marker:none;visibility:visible;display:inline;overflow:visible;enable-background:accumulate"
           id="rect11760"
           width="20.680899"
           height="2.9369576"
           x="314.21024"
           y="-44.610325"
           transform="matrix(0.93099901,0.36502171,-0.36502171,0.93099901,0,0)"
           inkscape:transform-center-x="-12.099213"
           inkscape:transform-center-y="4.4133958" />
        <rect
           inkscape:transform-center-y="-4.5723806"
           inkscape:transform-center-x="-12.040028"
           transform="matrix(0.94306951,-0.33259569,0.33259569,0.94306951,0,0)"
           y="169.75381"
           x="266.28012"
           height="3"
           width="21.125"
           id="rect11762"
           style="color:#000000;fill:url(#linearGradient11814);fill-opacity:1;fill-rule:nonzero;stroke:url(#linearGradient11816);stroke-width:1.93909621;stroke-linecap:butt;stroke-linejoin:miter;stroke-miterlimit:4;stroke-opacity:1;stroke-dasharray:none;stroke-dashoffset:0;marker:none;visibility:visible;display:inline;overflow:visible;enable-background:accumulate" />
        <path
           inkscape:connector-curvature="0"
           id="path11764"
           d="m 311.9943,71.183694 13.875,-4.9375"
           style="opacity:0.84552846;color:#000000;fill:#b7b2b1;fill-opacity:1;fill-rule:nonzero;stroke:#ffffff;stroke-width:1.93909621;stroke-linecap:butt;stroke-linejoin:miter;stroke-miterlimit:4;stroke-opacity:1;stroke-dasharray:none;stroke-dashoffset:0;marker:none;visibility:visible;display:inline;overflow:visible;enable-background:accumulate" />
        <g
           id="g11766">
          <path
             sodipodi:type="arc"
             style="color:#000000;fill:url(#radialGradient11262-52);fill-opacity:1;fill-rule:nonzero;stroke:url(#linearGradient11368-1);stroke-width:1.95717076;stroke-miterlimit:4;stroke-opacity:1;stroke-dasharray:none;marker:none;visibility:visible;display:inline;overflow:visible;enable-background:accumulate;color-interpolation:sRGB;color-interpolation-filters:linearRGB;stroke-linecap:butt;stroke-linejoin:miter;stroke-dashoffset:0;clip-rule:nonzero"
             id="path11768"
             sodipodi:cx="330.52823"
             sodipodi:cy="62.898258"
             sodipodi:rx="6.8500972"
             sodipodi:ry="6.8500972"
             d="m 337.37833,62.898258 c 0,3.783204 -3.0669,6.850097 -6.8501,6.850097 -3.78321,0 -6.8501,-3.066893 -6.8501,-6.850097 0,-3.783204 3.06689,-6.850097 6.8501,-6.850097 3.7832,0 6.8501,3.066893 6.8501,6.850097 z"
             transform="matrix(0.99076498,0,0,0.99076498,3.7793215,1.3194431)" />
          <path
             style="color:#000000;fill:#ffffff;fill-opacity:1;fill-rule:nonzero;stroke:none;stroke-width:1;marker:none;visibility:visible;display:inline;overflow:visible;enable-background:accumulate"
             d="m 326.41434,60.367866 c -0.2273,0.270697 -0.21936,0.934174 -0.1155,1.240405 0.0867,0.255617 0.591,0.407133 0.96197,0.397381 0.51848,-0.01363 2.0109,0.515797 3.03992,0.464895 1.01732,-0.05032 1.94945,0.03384 2.91557,-0.752498 0.51348,-0.417916 0.12607,-2.305108 -0.10352,-2.834672 -0.1055,-0.243371 -0.37717,-0.494447 -0.72148,-0.567686 -1.32212,-0.281237 -3.34331,-0.258893 -4.43238,0.341864 -0.74531,0.411131 -1.06172,1.135273 -1.54458,1.710311 z"
             id="path11770"
             inkscape:connector-curvature="0"
             sodipodi:nodetypes="sssasssss" />
          <path
             style="color:#000000;fill:#ffffff;fill-opacity:1;fill-rule:nonzero;stroke:none;stroke-width:1;marker:none;visibility:visible;display:inline;overflow:visible;enable-background:accumulate"
             d="m 334.64551,59.57739 c 0,0 -0.97227,0.795495 -0.53033,1.767766 0.44194,0.972272 2.20971,2.740039 2.56327,2.651651 0.35355,-0.08839 0.61871,-0.53033 0.53033,-0.883884 -0.0884,-0.353553 -0.44195,-1.767767 -1.06067,-2.474873 -0.61871,-0.707107 -1.5026,-1.06066 -1.5026,-1.06066 z"
             id="path11772"
             inkscape:connector-curvature="0"
             transform="matrix(0.90695273,0,0,0.78599129,30.857137,12.566949)" />
          <path
             style="opacity:0.73846153999999997;color:#000000;fill:url(#linearGradient11822);fill-opacity:1;fill-rule:nonzero;stroke:none;stroke-width:1;marker:none;visibility:visible;display:inline;overflow:visible;enable-background:accumulate"
             d="m 328.00916,65.770878 8.83883,0 c 0,0 -0.88388,3.181981 -4.5078,3.270369 -3.62392,0.08839 -4.33103,-3.270369 -4.33103,-3.270369 z"
             id="path11774"
             inkscape:connector-curvature="0"
             transform="matrix(1.1578429,0,0,1.4079856,-52.471482,-29.493852)" />
          <path
             transform="matrix(0.70768933,0,0,-0.70768933,97.343811,108.14926)"
             d="m 337.37833,62.898258 c 0,3.783204 -3.0669,6.850097 -6.8501,6.850097 -3.78321,0 -6.8501,-3.066893 -6.8501,-6.850097 0,-3.783204 3.06689,-6.850097 6.8501,-6.850097 3.7832,0 6.8501,3.066893 6.8501,6.850097 z"
             sodipodi:ry="6.8500972"
             sodipodi:rx="6.8500972"
             sodipodi:cy="62.898258"
             sodipodi:cx="330.52823"
             id="path11776"
             style="color:#000000;fill:none;stroke:url(#radialGradient11824);stroke-width:2.74003863;stroke-miterlimit:4;stroke-opacity:1;stroke-dasharray:none;marker:none;visibility:visible;display:inline;overflow:visible;enable-background:accumulate"
             sodipodi:type="arc" />
        </g>
        <path
           sodipodi:nodetypes="cc"
           style="opacity:0.84552846;color:#000000;fill:#b7b2b1;fill-opacity:1;fill-rule:nonzero;stroke:#ffffff;stroke-width:1.93909621;stroke-linecap:round;stroke-linejoin:miter;stroke-miterlimit:4;stroke-opacity:1;stroke-dasharray:none;stroke-dashoffset:0;marker:none;visibility:visible;display:inline;overflow:visible;enable-background:accumulate"
           d="m 311.6875,75.610084 15.04105,5.963388"
           id="path11778"
           inkscape:connector-curvature="0" />
        <path
           style="opacity:0.37804877;color:#000000;fill:#000000;fill-opacity:1;fill-rule:nonzero;stroke:none;stroke-width:1;marker:none;visibility:visible;display:inline;overflow:visible;enable-background:accumulate"
           d="m 326.40889,68.369183 -1.73605,-3.080205 c 0,0 1.82744,-1.053744 2.51939,0.655106 0.69197,1.708842 -0.78334,2.425099 -0.78334,2.425099 z"
           id="path11794"
           inkscape:connector-curvature="0"
           inkscape:transform-center-y="0.1875" />
        <g
           id="g11834"
           transform="translate(-25.208253,11.634577)">
          <path
             transform="matrix(0.99076498,0,0,0.99076498,3.7793215,1.3194431)"
             d="m 337.37833,62.898258 c 0,3.783204 -3.0669,6.850097 -6.8501,6.850097 -3.78321,0 -6.8501,-3.066893 -6.8501,-6.850097 0,-3.783204 3.06689,-6.850097 6.8501,-6.850097 3.7832,0 6.8501,3.066893 6.8501,6.850097 z"
             sodipodi:ry="6.8500972"
             sodipodi:rx="6.8500972"
             sodipodi:cy="62.898258"
             sodipodi:cx="330.52823"
             id="path11836"
             style="color:#000000;fill:url(#radialGradient11262-21);fill-opacity:1;fill-rule:nonzero;stroke:url(#linearGradient11368-2);stroke-width:1.95717076;stroke-miterlimit:4;stroke-opacity:1;stroke-dasharray:none;marker:none;visibility:visible;display:inline;overflow:visible;enable-background:accumulate;color-interpolation:sRGB;color-interpolation-filters:linearRGB;stroke-linecap:butt;stroke-linejoin:miter;stroke-dashoffset:0;clip-rule:nonzero"
             sodipodi:type="arc" />
          <path
             sodipodi:nodetypes="sssasssss"
             inkscape:connector-curvature="0"
             id="path11838"
             d="m 326.35375,62.879414 c -0.2273,0.548252 -0.82533,0.989439 -0.72148,1.609661 0.0867,0.517712 0.591,0.824583 0.96197,0.804831 0.51848,-0.0276 0.81299,-0.948417 1.28262,-1.264735 1.33226,-0.897347 3.28257,-0.132044 4.2487,-1.724637 0.51347,-0.846423 0.55024,-2.261751 0.32066,-3.334298 -0.10551,-0.492908 -0.37718,-1.001425 -0.72148,-1.149758 -1.32213,-0.569602 -2.91914,0.277947 -4.00821,1.494685 -0.7453,0.832679 -0.87992,2.3996 -1.36278,3.564251 z"
             style="color:#000000;fill:#ffffff;fill-opacity:1;fill-rule:nonzero;stroke:none;stroke-width:1;marker:none;visibility:visible;display:inline;overflow:visible;enable-background:accumulate" />
          <path
             transform="matrix(0.90695273,0,0,0.78599129,30.857137,12.566949)"
             inkscape:connector-curvature="0"
             id="path11840"
             d="m 334.64551,59.57739 c 0,0 -0.97227,0.795495 -0.53033,1.767766 0.44194,0.972272 2.20971,2.740039 2.56327,2.651651 0.35355,-0.08839 0.61871,-0.53033 0.53033,-0.883884 -0.0884,-0.353553 -0.44195,-1.767767 -1.06067,-2.474873 -0.61871,-0.707107 -1.5026,-1.06066 -1.5026,-1.06066 z"
             style="color:#000000;fill:#ffffff;fill-opacity:1;fill-rule:nonzero;stroke:none;stroke-width:1;marker:none;visibility:visible;display:inline;overflow:visible;enable-background:accumulate" />
          <path
             transform="matrix(1.1578429,0,0,1.4079856,-52.471482,-29.493852)"
             inkscape:connector-curvature="0"
             id="path11842"
             d="m 328.00916,65.770878 8.83883,0 c 0,0 -0.88388,3.181981 -4.5078,3.270369 -3.62392,0.08839 -4.33103,-3.270369 -4.33103,-3.270369 z"
             style="opacity:0.73846154;color:#000000;fill:url(#linearGradient11850);fill-opacity:1;fill-rule:nonzero;stroke:none;stroke-width:1;marker:none;visibility:visible;display:inline;overflow:visible;enable-background:accumulate" />
          <path
             sodipodi:type="arc"
             style="color:#000000;fill:none;stroke:url(#radialGradient11852);stroke-width:2.74003863;stroke-miterlimit:4;stroke-opacity:1;stroke-dasharray:none;marker:none;visibility:visible;display:inline;overflow:visible;enable-background:accumulate"
             id="path11844"
             sodipodi:cx="330.52823"
             sodipodi:cy="62.898258"
             sodipodi:rx="6.8500972"
             sodipodi:ry="6.8500972"
             d="m 337.37833,62.898258 c 0,3.783204 -3.0669,6.850097 -6.8501,6.850097 -3.78321,0 -6.8501,-3.066893 -6.8501,-6.850097 0,-3.783204 3.06689,-6.850097 6.8501,-6.850097 3.7832,0 6.8501,3.066893 6.8501,6.850097 z"
             transform="matrix(0.70768933,0,0,-0.70768933,97.343811,108.14926)" />
        </g>
        <g
           transform="translate(0,19.390961)"
           id="g11854">
          <path
             sodipodi:type="arc"
             style="color:#000000;fill:url(#radialGradient11262-1);fill-opacity:1;fill-rule:nonzero;stroke:url(#linearGradient11368-95);stroke-width:1.95717076;stroke-miterlimit:4;stroke-opacity:1;stroke-dasharray:none;marker:none;visibility:visible;display:inline;overflow:visible;enable-background:accumulate;color-interpolation:sRGB;color-interpolation-filters:linearRGB;stroke-linecap:butt;stroke-linejoin:miter;stroke-dashoffset:0;clip-rule:nonzero"
             id="path11856"
             sodipodi:cx="330.52823"
             sodipodi:cy="62.898258"
             sodipodi:rx="6.8500972"
             sodipodi:ry="6.8500972"
             d="m 337.37833,62.898258 c 0,3.783204 -3.0669,6.850097 -6.8501,6.850097 -3.78321,0 -6.8501,-3.066893 -6.8501,-6.850097 0,-3.783204 3.06689,-6.850097 6.8501,-6.850097 3.7832,0 6.8501,3.066893 6.8501,6.850097 z"
             transform="matrix(0.99076498,0,0,0.99076498,3.7793215,1.3194431)" />
          <path
             style="color:#000000;fill:#ffffff;fill-opacity:1;fill-rule:nonzero;stroke:none;stroke-width:1;marker:none;visibility:visible;display:inline;overflow:visible;enable-background:accumulate"
             d="m 327.28248,62.143845 c -0.25,0.421472 -0.91,0.760637 -0.79549,1.237437 0.0956,0.397994 0.65163,0.633903 1.06066,0.618718 0.57167,-0.02122 0.8964,-0.729101 1.41421,-0.972272 1.46894,-0.689841 3.61934,-0.10151 4.68458,-1.325825 0.56615,-0.650693 0.6067,-1.738735 0.35356,-2.563262 -0.11633,-0.378926 -0.41587,-0.769851 -0.7955,-0.883883 -1.45777,-0.437885 -3.21862,0.213673 -4.41942,1.149048 -0.82177,0.640127 -0.9702,1.844707 -1.5026,2.740039 z"
             id="path11858"
             inkscape:connector-curvature="0"
             sodipodi:nodetypes="sssasssss"
             transform="matrix(0.90695273,0,0,0.78599129,30.857137,12.566949)" />
          <path
             style="color:#000000;fill:#ffffff;fill-opacity:1;fill-rule:nonzero;stroke:none;stroke-width:1;marker:none;visibility:visible;display:inline;overflow:visible;enable-background:accumulate"
             d="m 334.64551,59.57739 c 0,0 -0.97227,0.795495 -0.53033,1.767766 0.44194,0.972272 2.20971,2.740039 2.56327,2.651651 0.35355,-0.08839 0.61871,-0.53033 0.53033,-0.883884 -0.0884,-0.353553 -0.44195,-1.767767 -1.06067,-2.474873 -0.61871,-0.707107 -1.5026,-1.06066 -1.5026,-1.06066 z"
             id="path11860"
             inkscape:connector-curvature="0"
             transform="matrix(0.90695273,0,0,0.78599129,30.857137,12.566949)" />
          <path
             style="opacity:0.73846154;color:#000000;fill:url(#linearGradient11870);fill-opacity:1;fill-rule:nonzero;stroke:none;stroke-width:1;marker:none;visibility:visible;display:inline;overflow:visible;enable-background:accumulate"
             d="m 328.00916,65.770878 8.83883,0 c 0,0 -0.88388,3.181981 -4.5078,3.270369 -3.62392,0.08839 -4.33103,-3.270369 -4.33103,-3.270369 z"
             id="path11862"
             inkscape:connector-curvature="0"
             transform="matrix(1.1578429,0,0,1.4079856,-52.471482,-29.493852)" />
          <path
             transform="matrix(0.70768933,0,0,-0.70768933,97.343811,108.14926)"
             d="m 337.37833,62.898258 c 0,3.783204 -3.0669,6.850097 -6.8501,6.850097 -3.78321,0 -6.8501,-3.066893 -6.8501,-6.850097 0,-3.783204 3.06689,-6.850097 6.8501,-6.850097 3.7832,0 6.8501,3.066893 6.8501,6.850097 z"
             sodipodi:ry="6.8500972"
             sodipodi:rx="6.8500972"
             sodipodi:cy="62.898258"
             sodipodi:cx="330.52823"
             id="path11864"
             style="color:#000000;fill:none;stroke:url(#radialGradient11872);stroke-width:2.74003863;stroke-miterlimit:4;stroke-opacity:1;stroke-dasharray:none;marker:none;visibility:visible;display:inline;overflow:visible;enable-background:accumulate"
             sodipodi:type="arc" />
        </g>
      </g>
    </g>
  </g>
</svg>
